<?xml version="1.0" encoding="utf-8"?>
<!DOCTYPE svg PUBLIC "-//W3C//DTD SVG 20010904//EN" "http://www.w3.org/TR/2001/REC-SVG-20010904/DTD/svg10.dtd">
<svg version="1.0" xmlns="http://www.w3.org/2000/svg" width="1576px" height="910px" viewBox="0 0 1576 910" preserveAspectRatio="xMidYMid meet">
 <g fill="#ffff00">
  <path d="M75 754 l0 -108 58 0 58 0 0 -42 0 -42 -58 0 -58 0 0 -108 0 -108 58 0 58 0 0 -42 0 -42 -58 0 -58 0 0 -108 0 -108 124 0 124 0 0 50 0 50 50 0 50 0 0 -50 0 -50 375.5 0 375.5 0 0 50 0 50 50 0 50 0 0 -50 0 -50 124 0 124 0 0 108 0 108 -58 0 -58 0 0 42 0 42 58 0 58 0 0 108 0 108 -58 0 -58 0 0 42 0 42 58 0 58 0 0 108 0 108 -124 0 -124 0 0 -50 0 -50 -50 0 -50 0 0 50 0 50 -375.5 0 -375.5 0 0 -50 0 -50 -50 0 -50 0 0 50 0 50 -124 0 -124 0 0 -108z m232 50 l0 -42 -58 0 -58 0 0 -50 0 -50 -50 0 -50 0 0 92 0 92 108 0 108 0 0 -42z m851 0 l0 -42 -359.5 0 -359.5 0 0 42 0 42 359.5 0 359.5 0 0 -42z m348 -50 l0 -92 -50 0 -50 0 0 50 0 50 -58 0 -58 0 0 42 0 42 108 0 108 0 0 -92z m-1199 -50 l0 -42 -50 0 -50 0 0 42 0 42 50 0 50 0 0 -42z m116 0 l0 -42 -50 0 -50 0 0 42 0 42 50 0 50 0 0 -42z m735 -8 l0 -50 58 0 58 0 0 -50 0 -50 58 0 58 0 0 -92 0 -92 -58 0 -58 0 0 -50 0 -50 -58 0 -58 0 0 -50 0 -50 -359.5 0 -359.5 0 0 50 0 50 -58 0 -58 0 0 50 0 50 -58 0 -58 0 0 92 0 92 58 0 58 0 0 50 0 50 58 0 58 0 0 50 0 50 359.5 0 359.5 0 0 -50z m116 8 l0 -42 -50 0 -50 0 0 42 0 42 50 0 50 0 0 -42z m116 0 l0 -42 -50 0 -50 0 0 42 0 42 50 0 50 0 0 -42z m-1083 -100 l0 -42 -50 0 -50 0 0 42 0 42 50 0 50 0 0 -42z m1083 0 l0 -42 -50 0 -50 0 0 42 0 42 50 0 50 0 0 -42z m-1199 -150 l0 -92 -50 0 -50 0 0 92 0 92 50 0 50 0 0 -92z m1315 0 l0 -92 -50 0 -50 0 0 92 0 92 50 0 50 0 0 -92z m-1199 -150 l0 -42 -50 0 -50 0 0 42 0 42 50 0 50 0 0 -42z m1083 0 l0 -42 -50 0 -50 0 0 42 0 42 50 0 50 0 0 -42z m-1199 -108 l0 -50 58 0 58 0 0 -42 0 -42 -108 0 -108 0 0 92 0 92 50 0 50 0 0 -50z m116 8 l0 -42 -50 0 -50 0 0 42 0 42 50 0 50 0 0 -42z m116 0 l0 -42 -50 0 -50 0 0 42 0 42 50 0 50 0 0 -42z m851 0 l0 -42 -50 0 -50 0 0 42 0 42 50 0 50 0 0 -42z m116 0 l0 -42 -50 0 -50 0 0 42 0 42 50 0 50 0 0 -42z m116 -50 l0 -92 -108 0 -108 0 0 42 0 42 58 0 58 0 0 50 0 50 50 0 50 0 0 -92z m-348 -50 l0 -42 -359.5 0 -359.5 0 0 42 0 42 359.5 0 359.5 0 0 -42z"/>
 </g>
</svg>